<svg width="12" height="12" viewBox="0 0 12 12" fill="none" xmlns="http://www.w3.org/2000/svg">
<path fill-rule="evenodd" clip-rule="evenodd" d="M11.7235 0.292893C12.0922 0.683417 12.0922 1.31658 11.7235 1.70711L7.67041 6L11.7235 10.2929C12.0922 10.6834 12.0922 11.3166 11.7235 11.7071C11.3548 12.0976 10.757 12.0976 10.3883 11.7071L5 6L10.3883 0.292893C10.757 -0.0976311 11.3548 -0.0976311 11.7235 0.292893Z" fill="black"/>
<path fill-rule="evenodd" clip-rule="evenodd" d="M6.72347 0.292893C7.09218 0.683417 7.09218 1.31658 6.72347 1.70711L2.67041 6L6.72347 10.2929C7.09218 10.6834 7.09218 11.3166 6.72347 11.7071C6.35476 12.0976 5.75697 12.0976 5.38827 11.7071L0 6L5.38827 0.292893C5.75697 -0.0976311 6.35476 -0.0976311 6.72347 0.292893Z" fill="black"/>
</svg>
